<svg width="34" height="34" viewBox="0 0 34 34" fill="none" xmlns="http://www.w3.org/2000/svg">
<g clip-path="url(#clip0_319_2569)">
<path d="M22.6667 13.3167L22.6667 24.0833C22.6667 24.9333 23.2333 25.5 24.0833 25.5C24.9333 25.5 25.5 24.9333 25.5 24.0833L25.5 9.91667C25.5 9.06667 24.9333 8.5 24.0833 8.5L9.91667 8.5C9.06667 8.5 8.5 9.06667 8.5 9.91667C8.5 10.7667 9.06667 11.3333 9.91667 11.3333L20.6833 11.3333L0.708331 31.3083C0.141664 31.875 0.141664 32.725 0.708331 33.2917C1.275 33.8583 2.125 33.8583 2.69167 33.2917L22.6667 13.3167Z" fill="white"/>
</g>
<defs>
<clipPath id="clip0_319_2569">
<rect width="34" height="34" fill="white" transform="translate(34) rotate(90)"/>
</clipPath>
</defs>
</svg>
