<svg width="40" height="40" viewBox="0 0 40 40" fill="none" xmlns="http://www.w3.org/2000/svg">
<path d="M20.0026 3.33203C10.8359 3.33203 3.33594 10.832 3.33594 19.9987C3.33594 29.1654 10.8359 36.6654 20.0026 36.6654C29.1693 36.6654 36.6693 29.1654 36.6693 19.9987C36.6693 10.832 29.1693 3.33203 20.0026 3.33203ZM27.0026 17.1654L19.0026 25.1654C18.3359 25.832 17.3359 25.832 16.6693 25.1654L13.0026 21.4987C12.3359 20.832 12.3359 19.832 13.0026 19.1654C13.6693 18.4987 14.6693 18.4987 15.3359 19.1654L17.8359 21.6654L24.6693 14.832C25.3359 14.1654 26.3359 14.1654 27.0026 14.832C27.6693 15.4987 27.6693 16.4987 27.0026 17.1654Z" fill="#FE300B"/>
</svg>
