<svg xmlns="http://www.w3.org/2000/svg" viewBox="0 0 89.72697 49.28613"><defs><style>.cls-1{fill:#131342;}.cls-2{fill:#ef3a24;}</style></defs><g id="Layer_2" data-name="Layer 2"><g id="Layer_1-2" data-name="Layer 1"><path class="cls-1" d="M79.75337,40.70059a11.27428,11.27428,0,0,1-8.814-3.65723,13.85752,13.85752,0,0,1-3.24512-9.55176,13.51774,13.51774,0,0,1,3.53418-9.65527,12.53471,12.53471,0,0,1,9.50538-3.73828,10.85453,10.85453,0,0,1,7.25293,2.55273l.30322.25879L85.96675,21.3627l-.479-.42676A8.44248,8.44248,0,0,0,83.226,19.64688a6.95427,6.95427,0,0,0-2.59375-.64551A6.64506,6.64506,0,0,0,75.25,21.30117a9.44239,9.44239,0,0,0-1.99268,6.3086,8.81692,8.81692,0,0,0,1.9458,5.99121,6.56946,6.56946,0,0,0,5.26026,2.19531A5.41424,5.41424,0,0,0,83.833,34.77285V30.64492H80.40278V26.894H89.227V37.71719l-.18359.15039a11.86608,11.86608,0,0,1-4.22461,2.09473A18.20056,18.20056,0,0,1,79.75337,40.70059Z"/><path class="cls-1" d="M80.7336,14.59774a10.32277,10.32277,0,0,1,6.92873,2.43354l-1.842,3.53192a8.84961,8.84961,0,0,0-2.39969-1.37726,7.40248,7.40248,0,0,0-2.7884-.68445,7.17864,7.17864,0,0,0-5.76266,2.47577,9.87442,9.87442,0,0,0-2.1124,6.63294,9.25515,9.25515,0,0,0,2.07016,6.32037,7.10226,7.10226,0,0,0,5.63591,2.3659,5.79083,5.79083,0,0,0,3.86994-1.28436v-4.867H80.90259V27.39346H88.727V37.4794A11.29285,11.29285,0,0,1,84.67959,39.482a17.61738,17.61738,0,0,1-4.92615.71826,10.75,10.75,0,0,1-8.4412-3.48974,13.31734,13.31734,0,0,1-3.11792-9.21857,12.97994,12.97994,0,0,1,3.39675-9.31152,12.00192,12.00192,0,0,1,9.14253-3.58265m0-1a13.01429,13.01429,0,0,0-9.86819,3.8946,14.00266,14.00266,0,0,0-3.67109,9.99957,14.33994,14.33994,0,0,0,3.37224,9.88489,11.75533,11.75533,0,0,0,9.18688,3.82342,18.69739,18.69739,0,0,0,5.20468-.75781,12.32832,12.32832,0,0,0,4.4017-2.18872l.36715-.30011V26.39346H79.90259v4.75165h3.43056V34.517a4.97285,4.97285,0,0,1-2.86994.77948A6.09722,6.09722,0,0,1,75.58,33.27218a8.33514,8.33514,0,0,1-1.82284-5.662,8.95862,8.95862,0,0,1,1.87308-5.98383,6.17331,6.17331,0,0,1,5.002-2.12488,6.48455,6.48455,0,0,1,2.39967.60584,7.96505,7.96505,0,0,1,2.12325,1.20257l.95833.8537.5935-1.138,1.842-3.53192.36856-.70667-.60668-.5169a11.341,11.341,0,0,0-7.57726-2.67237Z"/><path class="cls-2" d="M48.35189,49.28613H46.33374c-.60889,0-4.1508-.38609-4.34966-.96159l-7.8549-28.51989a1.428,1.428,0,0,0-2.7086.02775L24.23333,48.29678c-.19033.5897-3.73927.98935-4.35893.98935h-2c-.62524,0-4.17776-.40674-4.3635-1.00375L.06546,1.85218A1.428,1.428,0,0,1,1.429,0h8.8882a1.428,1.428,0,0,1,1.37241,1.03354l7.15054,28.3601a1.428,1.428,0,0,0,2.7345.03433L28.52331.99921C28.71051.4045,32.26191,0,32.88538,0h.22481c.62508,0,4.1775.40655,4.36338,1.00335l6.8358,28.3703a1.428,1.428,0,0,0,2.73378-.02328L54.338,1.02663A1.428,1.428,0,0,1,55.70837,0h8.90129a1.428,1.428,0,0,1,1.36506,1.84715L52.717,48.27735C52.53284,48.8769,48.97907,49.28613,48.35189,49.28613Z"/></g></g></svg>