<svg width="72" height="72" viewBox="0 0 72 72" fill="none" xmlns="http://www.w3.org/2000/svg">
<path d="M0 20C0 8.95431 8.95431 0 20 0H52C63.0457 0 72 8.95431 72 20V52C72 63.0457 63.0457 72 52 72H20C8.95431 72 0 63.0457 0 52V20Z" fill="#FE300B"/>
<g clip-path="url(#clip0_319_2578)">
<path d="M45.6667 28.3167L45.6667 39.0833C45.6667 39.9333 46.2333 40.5 47.0833 40.5C47.9333 40.5 48.5 39.9333 48.5 39.0833L48.5 24.9167C48.5 24.0667 47.9333 23.5 47.0833 23.5L32.9167 23.5C32.0667 23.5 31.5 24.0667 31.5 24.9167C31.5 25.7667 32.0667 26.3333 32.9167 26.3333L43.6833 26.3333L23.7083 46.3083C23.1417 46.875 23.1417 47.725 23.7083 48.2917C24.275 48.8583 25.125 48.8583 25.6917 48.2917L45.6667 28.3167Z" fill="white"/>
</g>
<defs>
<clipPath id="clip0_319_2578">
<rect width="34" height="34" fill="white" transform="translate(57 15) rotate(90)"/>
</clipPath>
</defs>
</svg>
